# xmcd CD database file
#
# Track frame offsets:
#	150
#	11188
#	24564
#	36182
#	48608
#	62845
#	83047
#	95604
#	108483
#	122303
#	135919
#	147244
#
# Disc length: 2118 seconds
#
# Revision: 0
# Processed by: cddbd v1.5.1PL0 Copyright (c) Steve Scherf et al.
# Submitted via: CDex 1.51
#
DISCID=9d08440c
DTITLE=Ella Fitzgerald - Just Women
DYEAR=1900
DGENRE=Jazz
TTITLE0=When I Get Low I Get High
TTITLE1=If You Can't Sing It (You'll Have To Swing It)
TTITLE2=I'll Chase The Blues Away
TTITLE3=Shake Down The Stars
TTITLE4=Rock It For Me
TTITLE5=Mack The Knife (Live)
TTITLE6=Sugar Blues
TTITLE7=I Got It Bad And That Ain't Good
TTITLE8=The One I Love
TTITLE9=My Man
TTITLE10=Baby Won't You Please Come Home
TTITLE11=If Dreams Come True
EXTD=
EXTT0=
EXTT1=
EXTT2=
EXTT3=
EXTT4=
EXTT5=
EXTT6=
EXTT7=
EXTT8=
EXTT9=
EXTT10=
EXTT11=
PLAYORDER=
